<svg version="1.1" id="Layer_1" xmlns="http://www.w3.org/2000/svg" xmlns:xlink="http://www.w3.org/1999/xlink" x="0px" y="0px"
	 width="100%" viewBox="0 0 1502 643" enable-background="new 0 0 1502 643" xml:space="preserve">
<path fill="#FFFFFF" opacity="1.000000" stroke="none" 
	d="
M1217.000000,644.000000 
	C811.380493,644.000000 406.260956,644.000000 1.070711,644.000000 
	C1.070711,429.738770 1.070711,215.477493 1.070711,1.108117 
	C501.666656,1.108117 1002.333313,1.108117 1502.982910,1.108117 
	C1502.982910,215.405975 1502.982910,429.702972 1502.982910,644.000000 
	C1407.810547,644.000000 1312.655273,644.000000 1217.000000,644.000000 
M375.564575,299.002167 
	C375.821167,298.756256 376.077759,298.510345 376.154633,298.221039 
	C376.154633,298.221039 376.194824,298.401489 376.883759,298.251526 
	C377.717224,297.877167 378.550690,297.502808 380.245728,297.142975 
	C395.334839,295.917816 403.305298,303.342560 403.313141,318.640930 
	C403.319550,331.131805 403.317047,343.622681 403.318176,356.113556 
	C403.318604,361.048065 403.318207,365.982574 403.318207,371.101196 
	C412.836151,371.101196 421.772308,371.101196 430.649841,371.101196 
	C430.803986,370.562866 430.974731,370.244354 430.975067,369.925690 
	C430.996857,349.440765 431.065521,328.955627 430.994415,308.470978 
	C430.939240,292.565430 423.797180,280.453613 409.841003,273.191376 
	C395.886414,265.929962 381.948700,267.129272 368.852173,276.171722 
	C368.047272,276.727478 366.860657,276.730469 365.926117,276.175629 
	C365.707581,274.759033 365.489044,273.342438 365.283600,272.010651 
	C356.021423,272.010651 347.117950,272.010651 338.290833,272.010651 
	C338.290833,305.227386 338.290833,338.126068 338.290833,371.029510 
	C346.066315,371.029510 353.535522,371.029510 361.654022,371.240448 
	C362.099091,371.173706 362.544159,371.106934 363.624969,371.290863 
	C367.313080,371.613892 365.955719,368.791931 365.964142,367.194824 
	C366.051086,350.742249 365.965851,334.288727 366.064178,317.836273 
	C366.083740,314.556854 366.677826,311.280884 367.241852,307.796936 
	C367.241852,307.796936 367.141815,307.500732 367.677032,307.174591 
	C367.795044,306.783966 367.913025,306.393311 368.468536,305.719482 
	C368.679626,305.256439 368.890717,304.793396 369.638123,304.078613 
	C369.810303,303.732727 369.982513,303.386841 370.672821,302.844055 
	C371.133148,302.281189 371.593506,301.718323 372.602112,301.016327 
	C372.818359,300.722748 373.034607,300.429169 373.099243,300.113495 
	C373.099243,300.113495 373.124329,300.264648 373.691620,300.114136 
	C374.135864,299.746765 374.580078,299.379364 375.005493,298.995911 
	C375.005493,298.995911 375.006439,299.019104 375.564575,299.002167 
M163.072311,232.009033 
	C143.496689,232.009033 123.921082,232.009033 104.258286,232.009033 
	C104.258286,278.509491 104.258286,324.817291 104.258286,371.286407 
	C111.601837,371.286407 118.587662,371.337097 125.572510,371.275818 
	C140.037262,371.148895 154.501480,370.962433 169.731430,370.857025 
	C187.638275,366.464996 199.760269,356.355377 202.683517,337.292725 
	C205.502151,318.912323 198.529037,302.977173 183.956787,294.582703 
	C190.220276,291.044769 193.583069,285.505951 195.074326,278.766052 
	C200.212006,255.545853 187.688644,236.859161 163.072311,232.009033 
M1117.578369,371.175751 
	C1121.401733,368.688019 1125.225098,366.200256 1129.108398,363.673553 
	C1132.024414,376.171936 1128.394043,385.049774 1118.498291,389.961700 
	C1103.182373,397.564026 1090.559448,393.938263 1077.117920,377.760040 
	C1069.065430,381.451080 1060.892578,385.197266 1052.578125,389.008331 
	C1053.329712,390.625488 1053.635986,391.392426 1054.028198,392.112549 
	C1065.550171,413.268127 1086.490967,424.044617 1111.302979,420.827454 
	C1135.205200,417.728180 1158.592651,400.785095 1157.883179,369.095795 
	C1157.201294,338.634705 1157.736816,308.146362 1157.737427,277.670013 
	C1157.737427,275.873962 1157.737427,274.077911 1157.737427,271.954224 
	C1148.249023,271.954224 1139.249634,271.954224 1130.186401,271.954224 
	C1129.952271,274.638275 1129.756104,276.887207 1129.473389,280.127838 
	C1127.300659,278.380737 1125.812378,277.196899 1124.337769,275.995972 
	C1118.716675,271.418060 1112.292725,269.048615 1105.037720,268.889954 
	C1083.442505,268.417694 1063.814453,281.171417 1055.387207,301.173584 
	C1047.072144,320.909424 1051.622070,344.411835 1067.361694,359.128021 
	C1081.416748,372.269043 1097.764526,377.862152 1117.578369,371.175751 
M1251.076782,298.627167 
	C1239.309204,327.037598 1251.409546,358.211243 1279.408936,369.830261 
	C1295.040649,376.316986 1310.572021,377.456085 1323.436646,363.209381 
	C1323.566162,363.065826 1324.026489,363.220795 1324.629883,363.251587 
	C1324.852539,364.963501 1324.796021,366.839081 1325.409790,368.460907 
	C1325.841309,369.600952 1327.164185,371.193939 1328.125122,371.219269 
	C1336.389648,371.437408 1344.662354,371.344604 1353.119751,371.344604 
	C1353.119751,337.845154 1353.119751,304.969208 1353.119751,272.021759 
	C1343.938110,272.021759 1335.109497,272.021759 1326.058594,272.021759 
	C1326.281982,275.226593 1326.467285,277.885864 1326.707275,281.328491 
	C1324.427856,279.517395 1322.910400,278.261292 1321.341064,277.073883 
	C1315.679810,272.790558 1309.568848,269.441040 1302.323364,268.988861 
	C1279.063232,267.537262 1262.292725,277.611694 1251.076782,298.627167 
M213.679138,304.226410 
	C208.931046,320.662964 210.883392,336.161713 220.431137,350.469940 
	C231.925858,367.695801 254.518982,377.912872 272.190338,372.958405 
	C278.339111,371.234497 283.714630,366.752594 289.414917,363.546265 
	C289.683350,365.444763 290.071320,368.188538 290.463196,370.960144 
	C299.794708,370.960144 308.835541,370.960144 317.764404,370.960144 
	C317.764404,337.720215 317.764404,304.839935 317.764404,271.945374 
	C308.657623,271.945374 299.898163,271.945374 290.978485,271.945374 
	C290.978485,275.035400 290.978485,277.863495 290.978485,281.216064 
	C289.139282,279.690063 287.791199,278.500854 286.370911,277.405273 
	C280.199982,272.645233 273.485870,269.188385 265.492767,268.894653 
	C241.313751,268.006042 222.438705,280.642670 213.679138,304.226410 
M1021.806458,363.323273 
	C1028.039795,358.039307 1033.416260,352.126617 1036.578735,343.743042 
	C1027.482544,341.651947 1018.955017,339.596405 1010.366821,337.836487 
	C1009.282288,337.614258 1007.827576,338.857819 1006.634277,339.572479 
	C1003.254700,341.596588 1000.168335,344.510468 996.524048,345.617126 
	C985.804932,348.872101 973.212646,340.966309 972.558228,330.758301 
	C983.884521,330.758301 995.190613,330.758301 1006.496765,330.758301 
	C1017.900024,330.758301 1029.303223,330.758301 1040.548950,330.758301 
	C1042.120850,321.362915 1041.573975,312.984009 1039.046021,304.784729 
	C1030.885742,278.316864 1004.380066,262.866974 978.786011,270.438293 
	C958.187866,276.531708 946.385559,291.160461 942.321960,312.020203 
	C938.173767,333.314484 947.853271,355.122467 966.105042,366.889221 
	C980.706177,376.302277 1003.990051,377.745300 1021.806458,363.323273 
M857.421936,356.485168 
	C857.420776,341.490570 857.479309,326.495544 857.378418,311.501617 
	C857.351685,307.521820 857.332703,303.432892 856.463196,299.585419 
	C850.252197,272.100677 819.370239,259.952057 795.950928,275.629608 
	C794.952698,276.297852 793.813721,276.755951 792.522522,277.424774 
	C792.200317,275.174591 791.969177,273.560638 791.736511,271.936127 
	C782.611633,271.936127 773.698425,271.936127 764.873657,271.936127 
	C764.873657,305.250458 764.873657,338.132843 764.873657,371.051727 
	C774.170044,371.051727 782.921143,371.051727 792.150452,371.051727 
	C792.150452,368.898163 792.149841,367.092285 792.150574,365.286438 
	C792.157104,349.125641 792.100098,332.964478 792.191833,316.804169 
	C792.259216,304.926880 800.232361,296.639343 811.171692,296.835022 
	C822.026489,297.029205 829.511780,305.185059 829.518066,316.847931 
	C829.526794,333.008789 829.522339,349.169678 829.523560,365.330536 
	C829.523682,367.116364 829.523621,368.902222 829.523621,371.038574 
	C838.978821,371.038574 847.864685,371.038574 857.421387,371.038574 
	C857.421387,366.382385 857.421387,361.929688 857.421936,356.485168 
M631.113708,289.404785 
	C619.001831,273.404663 602.950867,266.069275 583.136353,269.541931 
	C562.716553,273.120636 549.622559,286.025787 543.816406,305.618439 
	C537.825745,325.833862 541.985718,344.289001 556.893677,359.508209 
	C578.120239,381.178040 612.663818,378.410950 630.659302,353.962830 
	C644.662476,334.938568 645.002014,310.536163 631.113708,289.404785 
M475.618561,371.036163 
	C498.078766,378.354187 521.060059,371.187775 532.603943,353.090149 
	C525.146667,349.043884 517.761047,344.891968 510.199890,341.089020 
	C509.058655,340.515015 506.764099,341.098572 505.574493,341.947540 
	C499.599030,346.211945 493.109344,347.832947 486.250946,345.174225 
	C476.206696,341.280518 471.236328,333.243744 470.658997,322.787567 
	C470.094299,312.559021 474.088226,304.107178 483.178558,298.944855 
	C491.306976,294.328827 499.143768,295.812744 506.372162,301.544830 
	C507.172058,302.179108 508.879791,302.566986 509.691467,302.148346 
	C517.444275,298.149109 525.094666,293.951355 532.831970,289.779602 
	C518.093262,269.573456 492.899414,262.823700 471.792206,273.699615 
	C452.176849,283.806885 442.669220,300.630371 443.020782,322.433868 
	C443.384460,344.988129 454.433319,361.137024 475.618561,371.036163 
M885.929199,300.924438 
	C885.929199,324.212433 885.929199,347.500458 885.929199,371.079834 
	C895.318848,371.079834 904.215454,371.079834 913.742554,371.079834 
	C913.742554,347.059357 913.742554,323.355927 913.742554,299.133545 
	C919.941223,299.133545 925.525146,299.133545 931.356262,299.133545 
	C931.356262,289.740631 931.356262,280.879974 931.356262,271.494965 
	C928.357605,271.494965 925.729492,271.493927 923.101379,271.495178 
	C913.727783,271.499634 913.728760,271.499908 913.731018,261.901062 
	C913.732666,254.785538 913.731384,247.670013 913.731384,240.303192 
	C904.230286,240.303192 895.355774,240.303192 885.955444,240.303192 
	C885.955444,250.708679 885.955444,260.789642 885.955444,271.597900 
	C881.080078,271.597900 876.713989,271.597900 872.294800,271.597900 
	C872.294800,281.093506 872.294800,289.843201 872.294800,298.554443 
	C876.960815,299.066528 881.324402,299.545441 885.929199,300.924438 
M1399.196899,371.978973 
	C1399.816040,370.175140 1400.971924,368.372467 1400.975830,366.567352 
	C1401.074219,319.791901 1401.055298,273.016205 1401.041992,226.240555 
	C1401.041626,224.630646 1400.890015,223.020767 1400.806274,221.358047 
	C1391.401978,221.358047 1382.364380,221.358047 1373.423462,221.358047 
	C1373.423462,271.732178 1373.423462,321.733246 1373.423462,372.006500 
	C1381.961670,372.006500 1390.104614,372.006500 1399.196899,371.978973 
M728.460388,230.989746 
	C722.045410,230.989746 715.630432,230.989746 709.409912,230.989746 
	C709.409912,278.435669 709.409912,325.112396 709.409912,371.699646 
	C719.075317,371.699646 728.324585,371.699646 737.693481,371.699646 
	C737.693481,324.703339 737.693481,278.039398 737.693481,230.989746 
	C734.721191,230.989746 732.083862,230.989746 728.460388,230.989746 
M1209.149170,361.470276 
	C1209.148315,346.484741 1209.072388,331.498718 1209.169067,316.513824 
	C1209.254272,303.276184 1219.458496,294.929108 1232.463623,297.275269 
	C1233.390625,297.442474 1234.323242,297.578400 1235.564209,297.779205 
	C1239.130615,288.613342 1242.609253,279.672974 1246.566284,269.503357 
	C1239.483643,269.503357 1233.074829,268.535583 1227.123657,269.771606 
	C1220.995361,271.044464 1215.312988,274.465088 1209.371582,276.972931 
	C1209.206543,275.582977 1208.998047,273.826630 1208.722412,271.505798 
	C1201.620483,271.505798 1194.653931,271.775818 1187.720581,271.411682 
	C1183.032227,271.165436 1181.408203,272.443878 1181.447144,277.428619 
	C1181.676880,306.731781 1181.559937,336.037628 1181.559814,365.342590 
	C1181.559814,367.126404 1181.559814,368.910187 1181.559814,370.832642 
	C1191.101807,370.832642 1199.958862,370.832642 1209.149292,370.832642 
	C1209.149292,367.755798 1209.149292,365.108582 1209.149170,361.470276 
z"/>
<path fill="#EB7509" opacity="1.000000" stroke="none" 
	d="
M1117.235596,371.349518 
	C1097.764526,377.862152 1081.416748,372.269043 1067.361694,359.128021 
	C1051.622070,344.411835 1047.072144,320.909424 1055.387207,301.173584 
	C1063.814453,281.171417 1083.442505,268.417694 1105.037720,268.889954 
	C1112.292725,269.048615 1118.716675,271.418060 1124.337769,275.995972 
	C1125.812378,277.196899 1127.300659,278.380737 1129.473389,280.127838 
	C1129.756104,276.887207 1129.952271,274.638275 1130.186401,271.954224 
	C1139.249634,271.954224 1148.249023,271.954224 1157.737427,271.954224 
	C1157.737427,274.077911 1157.737427,275.873962 1157.737427,277.670013 
	C1157.736816,308.146362 1157.201294,338.634705 1157.883179,369.095795 
	C1158.592651,400.785095 1135.205200,417.728180 1111.302979,420.827454 
	C1086.490967,424.044617 1065.550171,413.268127 1054.028198,392.112549 
	C1053.635986,391.392426 1053.329712,390.625488 1052.578125,389.008331 
	C1060.892578,385.197266 1069.065430,381.451080 1077.117920,377.760040 
	C1090.559448,393.938263 1103.182373,397.564026 1118.498291,389.961700 
	C1128.394043,385.049774 1132.024414,376.171936 1129.108398,363.673553 
	C1125.225098,366.200256 1121.401733,368.688019 1117.235596,371.349518 
M1105.271606,347.594421 
	C1121.027710,344.865875 1129.441650,333.822784 1127.944336,317.836975 
	C1126.933350,307.043335 1118.988892,298.115936 1108.452026,295.933014 
	C1098.498047,293.870850 1088.289185,298.996338 1083.084106,308.552368 
	C1073.929810,325.358765 1084.946533,347.536102 1105.271606,347.594421 
z"/>
<path fill="#0E406A" opacity="1.000000" stroke="none" 
	d="
M163.976257,232.271103 
	C187.688644,236.859161 200.212006,255.545853 195.074326,278.766052 
	C193.583069,285.505951 190.220276,291.044769 183.956787,294.582703 
	C198.529037,302.977173 205.502151,318.912323 202.683517,337.292725 
	C199.760269,356.355377 187.638275,366.464996 169.025177,370.575531 
	C149.177490,370.197632 130.035141,369.968811 110.895271,370.100189 
	C106.257713,370.132050 104.901230,368.656219 104.917503,364.072479 
	C105.064705,322.600342 104.995895,281.127472 105.008270,239.654816 
	C105.009995,233.872238 105.880188,233.012909 111.691696,233.005295 
	C127.348015,232.984772 143.004456,233.023193 158.660614,232.968903 
	C160.433289,232.962753 162.204407,232.514404 163.976257,232.271103 
M140.559753,347.907379 
	C146.710159,347.906677 152.862015,347.991241 159.010635,347.886108 
	C169.225967,347.711487 177.319427,339.860016 178.274063,329.342224 
	C179.120544,320.016022 172.024124,309.385681 162.753418,308.481873 
	C152.457870,307.478210 141.989014,308.252167 131.700592,308.252167 
	C131.700592,321.679718 131.700592,334.687866 131.700592,347.907501 
	C134.609116,347.907501 137.095383,347.907501 140.559753,347.907379 
M131.269699,280.259003 
	C131.360443,281.700806 131.451187,283.142609 131.562378,284.909302 
	C138.032104,284.909302 144.146759,284.913940 150.261429,284.905640 
	C151.588409,284.903839 152.926941,284.959198 154.240372,284.811829 
	C162.438492,283.891968 168.494980,277.553406 168.733536,269.706879 
	C168.960693,262.235474 163.583420,256.050354 155.088287,255.369720 
	C147.380920,254.752182 139.585037,255.239105 131.272034,255.239105 
	C131.272034,263.467255 131.272034,271.386261 131.269699,280.259003 
z"/>
<path fill="#EB7507" opacity="1.000000" stroke="none" 
	d="
M1251.222778,298.278595 
	C1262.292725,277.611694 1279.063232,267.537262 1302.323364,268.988861 
	C1309.568848,269.441040 1315.679810,272.790558 1321.341064,277.073883 
	C1322.910400,278.261292 1324.427856,279.517395 1326.707275,281.328491 
	C1326.467285,277.885864 1326.281982,275.226593 1326.058594,272.021759 
	C1335.109497,272.021759 1343.938110,272.021759 1353.119751,272.021759 
	C1353.119751,304.969208 1353.119751,337.845154 1353.119751,371.344604 
	C1344.662354,371.344604 1336.389648,371.437408 1328.125122,371.219269 
	C1327.164185,371.193939 1325.841309,369.600952 1325.409790,368.460907 
	C1324.796021,366.839081 1324.852539,364.963501 1324.629883,363.251587 
	C1324.026489,363.220795 1323.566162,363.065826 1323.436646,363.209381 
	C1310.572021,377.456085 1295.040649,376.316986 1279.408936,369.830261 
	C1251.409546,358.211243 1239.309204,327.037598 1251.222778,298.278595 
M1282.911987,340.597076 
	C1290.632690,347.681274 1299.447144,349.835785 1309.065430,345.346649 
	C1319.343994,340.549225 1323.777222,331.696533 1323.677979,320.697510 
	C1323.576416,309.430817 1316.649536,299.973297 1306.728516,296.596069 
	C1297.357910,293.406219 1287.028564,296.685516 1280.476318,304.930542 
	C1272.406250,315.085510 1273.175415,329.144287 1282.911987,340.597076 
z"/>
<path fill="#0F406A" opacity="1.000000" stroke="none" 
	d="
M213.772644,303.838623 
	C222.438705,280.642670 241.313751,268.006042 265.492767,268.894653 
	C273.485870,269.188385 280.199982,272.645233 286.370911,277.405273 
	C287.791199,278.500854 289.139282,279.690063 290.978485,281.216064 
	C290.978485,277.863495 290.978485,275.035400 290.978485,271.945374 
	C299.898163,271.945374 308.657623,271.945374 317.764404,271.945374 
	C317.764404,304.839935 317.764404,337.720215 317.764404,370.960144 
	C308.835541,370.960144 299.794708,370.960144 290.463196,370.960144 
	C290.071320,368.188538 289.683350,365.444763 289.414917,363.546265 
	C283.714630,366.752594 278.339111,371.234497 272.190338,372.958405 
	C254.518982,377.912872 231.925858,367.695801 220.431137,350.469940 
	C210.883392,336.161713 208.931046,320.662964 213.772644,303.838623 
M275.136871,344.830902 
	C291.715302,335.592499 292.711853,310.944763 277.979431,300.051544 
	C268.609772,293.123535 255.916595,294.079681 247.446075,302.288940 
	C238.564209,310.896881 237.029953,325.643738 243.917328,336.206421 
	C250.761475,346.702850 262.698547,350.185699 275.136871,344.830902 
z"/>
<path fill="#EB760A" opacity="1.000000" stroke="none" 
	d="
M1021.538086,363.557007 
	C1003.990051,377.745300 980.706177,376.302277 966.105042,366.889221 
	C947.853271,355.122467 938.173767,333.314484 942.321960,312.020203 
	C946.385559,291.160461 958.187866,276.531708 978.786011,270.438293 
	C1004.380066,262.866974 1030.885742,278.316864 1039.046021,304.784729 
	C1041.573975,312.984009 1042.120850,321.362915 1040.548950,330.758301 
	C1029.303223,330.758301 1017.900024,330.758301 1006.496765,330.758301 
	C995.190613,330.758301 983.884521,330.758301 972.558228,330.758301 
	C973.212646,340.966309 985.804932,348.872101 996.524048,345.617126 
	C1000.168335,344.510468 1003.254700,341.596588 1006.634277,339.572479 
	C1007.827576,338.857819 1009.282288,337.614258 1010.366821,337.836487 
	C1018.955017,339.596405 1027.482544,341.651947 1036.578735,343.743042 
	C1033.416260,352.126617 1028.039795,358.039307 1021.538086,363.557007 
M1003.604553,296.788116 
	C990.307983,288.306335 972.778503,295.370789 971.317017,309.875977 
	C984.944885,309.875977 998.559814,309.875977 1012.174683,309.875977 
	C1012.513733,309.457153 1012.852722,309.038330 1013.191772,308.619476 
	C1010.199585,304.809479 1007.207336,300.999451 1003.604553,296.788116 
z"/>
<path fill="#EB7508" opacity="1.000000" stroke="none" 
	d="
M857.421631,356.981079 
	C857.421387,361.929688 857.421387,366.382385 857.421387,371.038574 
	C847.864685,371.038574 838.978821,371.038574 829.523621,371.038574 
	C829.523621,368.902222 829.523682,367.116364 829.523560,365.330536 
	C829.522339,349.169678 829.526794,333.008789 829.518066,316.847931 
	C829.511780,305.185059 822.026489,297.029205 811.171692,296.835022 
	C800.232361,296.639343 792.259216,304.926880 792.191833,316.804169 
	C792.100098,332.964478 792.157104,349.125641 792.150574,365.286438 
	C792.149841,367.092285 792.150452,368.898163 792.150452,371.051727 
	C782.921143,371.051727 774.170044,371.051727 764.873657,371.051727 
	C764.873657,338.132843 764.873657,305.250458 764.873657,271.936127 
	C773.698425,271.936127 782.611633,271.936127 791.736511,271.936127 
	C791.969177,273.560638 792.200317,275.174591 792.522522,277.424774 
	C793.813721,276.755951 794.952698,276.297852 795.950928,275.629608 
	C819.370239,259.952057 850.252197,272.100677 856.463196,299.585419 
	C857.332703,303.432892 857.351685,307.521820 857.378418,311.501617 
	C857.479309,326.495544 857.420776,341.490570 857.421631,356.981079 
z"/>
<path fill="#0F406A" opacity="1.000000" stroke="none" 
	d="
M631.331665,289.689209 
	C645.002014,310.536163 644.662476,334.938568 630.659302,353.962830 
	C612.663818,378.410950 578.120239,381.178040 556.893677,359.508209 
	C541.985718,344.289001 537.825745,325.833862 543.816406,305.618439 
	C549.622559,286.025787 562.716553,273.120636 583.136353,269.541931 
	C602.950867,266.069275 619.001831,273.404663 631.331665,289.689209 
M595.886719,345.938354 
	C611.325073,342.805847 620.543030,320.602722 607.799866,304.660065 
	C602.984863,298.636139 596.553406,295.259949 588.526611,296.604034 
	C575.812134,298.732971 567.212769,311.500793 569.226318,325.419067 
	C571.120117,338.509308 582.152954,348.378143 595.886719,345.938354 
z"/>
<path fill="#0F406A" opacity="1.000000" stroke="none" 
	d="
M369.101807,304.330322 
	C368.890717,304.793396 368.679626,305.256439 367.997620,306.037048 
	C367.398407,306.736664 367.270111,307.118683 367.141815,307.500732 
	C367.141815,307.500732 367.241852,307.796936 366.776428,308.092285 
	C365.872467,310.237579 365.064240,312.085358 365.053223,313.937836 
	C364.954010,330.669556 365.071167,347.402893 364.904877,364.133545 
	C364.881927,366.441864 363.657440,368.738251 362.989227,371.040161 
	C362.544159,371.106934 362.099091,371.173706 361.039856,370.832520 
	C355.120605,370.283722 349.797760,369.816223 344.515900,370.103241 
	C340.128815,370.341614 338.863800,369.014008 338.899689,364.549622 
	C339.112518,338.074280 339.004822,311.596375 339.004883,285.119324 
	C339.004883,273.002502 339.005371,272.938782 351.333710,273.032867 
	C356.478455,273.072144 362.194489,271.358337 365.851654,276.990662 
	C366.860657,276.730469 368.047272,276.727478 368.852173,276.171722 
	C381.948700,267.129272 395.886414,265.929962 409.841003,273.191376 
	C423.797180,280.453613 430.939240,292.565430 430.994415,308.470978 
	C431.065521,328.955627 430.996857,349.440765 430.975067,369.925690 
	C430.974731,370.244354 430.803986,370.562866 430.649841,371.101196 
	C421.772308,371.101196 412.836151,371.101196 403.318207,371.101196 
	C403.318207,365.982574 403.318604,361.048065 403.318176,356.113556 
	C403.317047,343.622681 403.319550,331.131805 403.313141,318.640930 
	C403.305298,303.342560 395.334839,295.917816 379.423553,297.104584 
	C377.799194,297.511292 376.997009,297.956390 376.194824,298.401489 
	C376.194824,298.401489 376.154633,298.221039 375.966644,298.248077 
	C375.521240,298.523102 375.263855,298.771118 375.006439,299.019104 
	C375.006439,299.019104 375.005493,298.995911 374.699341,299.029419 
	C373.970215,299.463470 373.547272,299.864075 373.124329,300.264648 
	C373.124329,300.264648 373.099243,300.113495 372.900604,300.192413 
	C372.485931,300.566040 372.269897,300.860748 372.053864,301.155457 
	C371.593506,301.718323 371.133148,302.281189 370.147766,303.071198 
	C369.449066,303.642334 369.275421,303.986328 369.101807,304.330322 
z"/>
<path fill="#10416A" opacity="1.000000" stroke="none" 
	d="
M475.254578,370.899689 
	C454.433319,361.137024 443.384460,344.988129 443.020782,322.433868 
	C442.669220,300.630371 452.176849,283.806885 471.792206,273.699615 
	C492.899414,262.823700 518.093262,269.573456 532.831970,289.779602 
	C525.094666,293.951355 517.444275,298.149109 509.691467,302.148346 
	C508.879791,302.566986 507.172058,302.179108 506.372162,301.544830 
	C499.143768,295.812744 491.306976,294.328827 483.178558,298.944855 
	C474.088226,304.107178 470.094299,312.559021 470.658997,322.787567 
	C471.236328,333.243744 476.206696,341.280518 486.250946,345.174225 
	C493.109344,347.832947 499.599030,346.211945 505.574493,341.947540 
	C506.764099,341.098572 509.058655,340.515015 510.199890,341.089020 
	C517.761047,344.891968 525.146667,349.043884 532.603943,353.090149 
	C521.060059,371.187775 498.078766,378.354187 475.254578,370.899689 
z"/>
<path fill="#EA760A" opacity="1.000000" stroke="none" 
	d="
M885.808594,300.474426 
	C881.324402,299.545441 876.960815,299.066528 872.294800,298.554443 
	C872.294800,289.843201 872.294800,281.093506 872.294800,271.597900 
	C876.713989,271.597900 881.080078,271.597900 885.955444,271.597900 
	C885.955444,260.789642 885.955444,250.708679 885.955444,240.303192 
	C895.355774,240.303192 904.230286,240.303192 913.731384,240.303192 
	C913.731384,247.670013 913.732666,254.785538 913.731018,261.901062 
	C913.728760,271.499908 913.727783,271.499634 923.101379,271.495178 
	C925.729492,271.493927 928.357605,271.494965 931.356262,271.494965 
	C931.356262,280.879974 931.356262,289.740631 931.356262,299.133545 
	C925.525146,299.133545 919.941223,299.133545 913.742554,299.133545 
	C913.742554,323.355927 913.742554,347.059357 913.742554,371.079834 
	C904.215454,371.079834 895.318848,371.079834 885.929199,371.079834 
	C885.929199,347.500458 885.929199,324.212433 885.808594,300.474426 
z"/>
<path fill="#EB7506" opacity="1.000000" stroke="none" 
	d="
M1398.722168,371.992737 
	C1390.104614,372.006500 1381.961670,372.006500 1373.423462,372.006500 
	C1373.423462,321.733246 1373.423462,271.732178 1373.423462,221.358047 
	C1382.364380,221.358047 1391.401978,221.358047 1400.806274,221.358047 
	C1400.890015,223.020767 1401.041626,224.630646 1401.041992,226.240555 
	C1401.055298,273.016205 1401.074219,319.791901 1400.975830,366.567352 
	C1400.971924,368.372467 1399.816040,370.175140 1398.722168,371.992737 
z"/>
<path fill="#EA7507" opacity="1.000000" stroke="none" 
	d="
M728.953491,230.989746 
	C732.083862,230.989746 734.721191,230.989746 737.693481,230.989746 
	C737.693481,278.039398 737.693481,324.703339 737.693481,371.699646 
	C728.324585,371.699646 719.075317,371.699646 709.409912,371.699646 
	C709.409912,325.112396 709.409912,278.435669 709.409912,230.989746 
	C715.630432,230.989746 722.045410,230.989746 728.953491,230.989746 
z"/>
<path fill="#EB7508" opacity="1.000000" stroke="none" 
	d="
M1209.149170,361.965820 
	C1209.149292,365.108582 1209.149292,367.755798 1209.149292,370.832642 
	C1199.958862,370.832642 1191.101807,370.832642 1181.559814,370.832642 
	C1181.559814,368.910187 1181.559814,367.126404 1181.559814,365.342590 
	C1181.559937,336.037628 1181.676880,306.731781 1181.447144,277.428619 
	C1181.408203,272.443878 1183.032227,271.165436 1187.720581,271.411682 
	C1194.653931,271.775818 1201.620483,271.505798 1208.722412,271.505798 
	C1208.998047,273.826630 1209.206543,275.582977 1209.371582,276.972931 
	C1215.312988,274.465088 1220.995361,271.044464 1227.123657,269.771606 
	C1233.074829,268.535583 1239.483643,269.503357 1246.566284,269.503357 
	C1242.609253,279.672974 1239.130615,288.613342 1235.564209,297.779205 
	C1234.323242,297.578400 1233.390625,297.442474 1232.463623,297.275269 
	C1219.458496,294.929108 1209.254272,303.276184 1209.169067,316.513824 
	C1209.072388,331.498718 1209.148315,346.484741 1209.149170,361.965820 
z"/>
<path fill="#193C5B" opacity="1.000000" stroke="none" 
	d="
M163.524292,232.140076 
	C162.204407,232.514404 160.433289,232.962753 158.660614,232.968903 
	C143.004456,233.023193 127.348015,232.984772 111.691696,233.005295 
	C105.880188,233.012909 105.009995,233.872238 105.008270,239.654816 
	C104.995895,281.127472 105.064705,322.600342 104.917503,364.072479 
	C104.901230,368.656219 106.257713,370.132050 110.895271,370.100189 
	C130.035141,369.968811 149.177490,370.197632 168.642426,370.547241 
	C154.501480,370.962433 140.037262,371.148895 125.572510,371.275818 
	C118.587662,371.337097 111.601837,371.286407 104.258286,371.286407 
	C104.258286,324.817291 104.258286,278.509491 104.258286,232.009033 
	C123.921082,232.009033 143.496689,232.009033 163.524292,232.140076 
z"/>
<path fill="#193C5B" opacity="1.000000" stroke="none" 
	d="
M365.888885,276.583130 
	C362.194489,271.358337 356.478455,273.072144 351.333710,273.032867 
	C339.005371,272.938782 339.004883,273.002502 339.004883,285.119324 
	C339.004822,311.596375 339.112518,338.074280 338.899689,364.549622 
	C338.863800,369.014008 340.128815,370.341614 344.515900,370.103241 
	C349.797760,369.816223 355.120605,370.283722 360.715210,370.727051 
	C353.535522,371.029510 346.066315,371.029510 338.290833,371.029510 
	C338.290833,338.126068 338.290833,305.227386 338.290833,272.010651 
	C347.117950,272.010651 356.021423,272.010651 365.283600,272.010651 
	C365.489044,273.342438 365.707581,274.759033 365.888885,276.583130 
z"/>
<path fill="#193C5B" opacity="1.000000" stroke="none" 
	d="
M363.307098,371.165527 
	C363.657440,368.738251 364.881927,366.441864 364.904877,364.133545 
	C365.071167,347.402893 364.954010,330.669556 365.053223,313.937836 
	C365.064240,312.085358 365.872467,310.237579 366.658997,308.195496 
	C366.677826,311.280884 366.083740,314.556854 366.064178,317.836273 
	C365.965851,334.288727 366.051086,350.742249 365.964142,367.194824 
	C365.955719,368.791931 367.313080,371.613892 363.307098,371.165527 
z"/>
<path fill="#193C5B" opacity="1.000000" stroke="none" 
	d="
M376.539307,298.326508 
	C376.997009,297.956390 377.799194,297.511292 378.992767,297.097321 
	C378.550690,297.502808 377.717224,297.877167 376.539307,298.326508 
z"/>
<path fill="#193C5B" opacity="1.000000" stroke="none" 
	d="
M373.407959,300.189392 
	C373.547272,299.864075 373.970215,299.463470 374.708740,299.037415 
	C374.580078,299.379364 374.135864,299.746765 373.407959,300.189392 
z"/>
<path fill="#193C5B" opacity="1.000000" stroke="none" 
	d="
M375.285522,299.010620 
	C375.263855,298.771118 375.521240,298.523102 376.056488,298.269775 
	C376.077759,298.510345 375.821167,298.756256 375.285522,299.010620 
z"/>
<path fill="#193C5B" opacity="1.000000" stroke="none" 
	d="
M372.328003,301.085876 
	C372.269897,300.860748 372.485931,300.566040 372.976379,300.203461 
	C373.034607,300.429169 372.818359,300.722748 372.328003,301.085876 
z"/>
<path fill="#193C5B" opacity="1.000000" stroke="none" 
	d="
M369.369965,304.204468 
	C369.275421,303.986328 369.449066,303.642334 369.888702,303.169617 
	C369.982513,303.386841 369.810303,303.732727 369.369965,304.204468 
z"/>
<path fill="#193C5B" opacity="1.000000" stroke="none" 
	d="
M367.409424,307.337646 
	C367.270111,307.118683 367.398407,306.736664 367.778870,306.178650 
	C367.913025,306.393311 367.795044,306.783966 367.409424,307.337646 
z"/>
<path fill="#FFFDF9" opacity="1.000000" stroke="none" 
	d="
M1104.868530,347.635925 
	C1084.946533,347.536102 1073.929810,325.358765 1083.084106,308.552368 
	C1088.289185,298.996338 1098.498047,293.870850 1108.452026,295.933014 
	C1118.988892,298.115936 1126.933350,307.043335 1127.944336,317.836975 
	C1129.441650,333.822784 1121.027710,344.865875 1104.868530,347.635925 
z"/>
<path fill="#FAFCFC" opacity="1.000000" stroke="none" 
	d="
M140.070694,347.907440 
	C137.095383,347.907501 134.609116,347.907501 131.700592,347.907501 
	C131.700592,334.687866 131.700592,321.679718 131.700592,308.252167 
	C141.989014,308.252167 152.457870,307.478210 162.753418,308.481873 
	C172.024124,309.385681 179.120544,320.016022 178.274063,329.342224 
	C177.319427,339.860016 169.225967,347.711487 159.010635,347.886108 
	C152.862015,347.991241 146.710159,347.906677 140.070694,347.907440 
z"/>
<path fill="#F8FAFB" opacity="1.000000" stroke="none" 
	d="
M131.270874,279.782135 
	C131.272034,271.386261 131.272034,263.467255 131.272034,255.239105 
	C139.585037,255.239105 147.380920,254.752182 155.088287,255.369720 
	C163.583420,256.050354 168.960693,262.235474 168.733536,269.706879 
	C168.494980,277.553406 162.438492,283.891968 154.240372,284.811829 
	C152.926941,284.959198 151.588409,284.903839 150.261429,284.905640 
	C144.146759,284.913940 138.032104,284.909302 131.562378,284.909302 
	C131.451187,283.142609 131.360443,281.700806 131.270874,279.782135 
z"/>
<path fill="#FFFCF9" opacity="1.000000" stroke="none" 
	d="
M1282.656006,340.342285 
	C1273.175415,329.144287 1272.406250,315.085510 1280.476318,304.930542 
	C1287.028564,296.685516 1297.357910,293.406219 1306.728516,296.596069 
	C1316.649536,299.973297 1323.576416,309.430817 1323.677979,320.697510 
	C1323.777222,331.696533 1319.343994,340.549225 1309.065430,345.346649 
	C1299.447144,349.835785 1290.632690,347.681274 1282.656006,340.342285 
z"/>
<path fill="#FBFCFD" opacity="1.000000" stroke="none" 
	d="
M274.787018,344.971008 
	C262.698547,350.185699 250.761475,346.702850 243.917328,336.206421 
	C237.029953,325.643738 238.564209,310.896881 247.446075,302.288940 
	C255.916595,294.079681 268.609772,293.123535 277.979431,300.051544 
	C292.711853,310.944763 291.715302,335.592499 274.787018,344.971008 
z"/>
<path fill="#FEFBF5" opacity="1.000000" stroke="none" 
	d="
M1003.909790,296.988770 
	C1007.207336,300.999451 1010.199585,304.809479 1013.191772,308.619476 
	C1012.852722,309.038330 1012.513733,309.457153 1012.174683,309.875977 
	C998.559814,309.875977 984.944885,309.875977 971.317017,309.875977 
	C972.778503,295.370789 990.307983,288.306335 1003.909790,296.988770 
z"/>
<path fill="#FBFCFD" opacity="1.000000" stroke="none" 
	d="
M595.452881,345.983948 
	C582.152954,348.378143 571.120117,338.509308 569.226318,325.419067 
	C567.212769,311.500793 575.812134,298.732971 588.526611,296.604034 
	C596.553406,295.259949 602.984863,298.636139 607.799866,304.660065 
	C620.543030,320.602722 611.325073,342.805847 595.452881,345.983948 
z"/>
</svg>